<svg width="1176" height="2" viewBox="0 0 1176 2" fill="none" xmlns="http://www.w3.org/2000/svg">
<path d="M1161.69 0.809568C1147.71 1.24808 1129.21 0.877032 1113.84 1.18062C1112 1.21435 1114.27 0.944496 1110.18 1.01196C1095.33 1.34928 1071.78 1.21435 1053.61 0.978224L1054.68 0.91076C1051.24 0.877032 1047.05 1.07942 1043.39 1.07942C1043.39 1.04569 1044.58 1.01196 1043.72 0.944496C1042.75 1.07942 1037.04 1.01196 1035.54 1.11315C1034.14 1.07942 1034.25 0.978224 1032.32 0.91076L1030.27 1.04569C1024.47 1.41674 1016.08 1.04569 1008.11 1.21435C1008.55 1.18062 1009.3 1.14689 1008.65 1.11315C995.854 1.34928 979.942 1.31554 965.639 1.41674C966.177 1.34927 966.714 1.28182 965.854 1.21435C965.101 1.38301 960.692 1.41674 956.928 1.45047C955.207 1.28182 950.368 1.5854 945.851 1.51794L946.281 1.48421C942.947 1.65286 941.334 1.38301 938.645 1.5854L936.495 1.45047C934.989 1.6866 931.655 1.34928 928.967 1.45047L929.074 1.48421C926.493 1.55167 925.095 1.41674 922.729 1.48421L922.513 1.45047C916.921 1.51794 913.587 1.38301 913.803 1.55166C911.867 1.41674 919.287 1.48421 916.169 1.28182C897.671 1.48421 878.636 1.45047 860.031 1.45047C857.879 1.38301 856.589 1.34928 856.052 1.28182C854.223 1.31554 849.061 1.31554 847.341 1.41674C847.985 1.41674 846.158 1.31554 845.189 1.31554C841.856 1.24808 841.533 1.51794 837.769 1.41674C839.274 1.38301 839.704 1.31554 839.274 1.24808C836.156 1.38301 831.854 1.34927 828.09 1.41674C828.628 1.38301 829.596 1.38301 829.488 1.31554C825.401 1.48421 822.067 1.28182 818.411 1.38301L819.809 1.28182C814.002 1.14689 818.089 1.4842 813.142 1.41674C814.324 1.38301 813.894 1.34928 814.109 1.31554C809.485 1.48421 801.957 1.45047 797.224 1.51794C797.548 1.51794 797.44 1.48421 797.44 1.48421C792.385 1.51794 787.116 1.45047 781.523 1.51794C779.48 1.48421 782.169 1.28182 776.792 1.31554C777.006 1.51794 767.65 1.38301 770.876 1.61914C766.252 1.5854 759.047 1.51794 756.035 1.5854C758.078 1.51794 753.777 1.34928 757.648 1.31554L754.744 1.18062C755.175 1.11315 757.756 1.21435 756.788 1.11315C754.852 1.11315 749.367 1.21435 747.647 1.18062C744.098 1.31554 740.872 1.51794 735.172 1.55166C737.86 1.4842 733.667 1.31554 735.494 1.28182L727.536 1.65286C725.6 1.65286 727.106 1.4842 724.417 1.55166C724.525 1.61913 723.342 1.65286 722.482 1.68659C721.728 1.65286 714.523 1.72033 713.771 1.55166C712.91 1.4842 716.889 1.51794 714.738 1.45047C711.189 1.45047 711.082 1.51794 707.533 1.51794L707.425 1.48421C705.06 1.45047 700.543 1.55167 703.124 1.68659C704.737 1.68659 702.478 1.55167 704.952 1.61914C703.339 1.72033 699.252 1.75406 695.704 1.75406C696.886 1.72033 696.779 1.6866 697.209 1.61914C692.476 1.78779 687.423 1.82152 682.153 1.88898C682.045 1.99018 684.089 1.72033 684.949 1.75406C678.173 1.61913 670.968 1.92272 665.375 1.75406C666.344 1.75406 665.914 1.88898 665.806 1.85526C662.58 1.85526 662.687 1.72033 660.536 1.75406C660.321 1.68659 657.847 1.78779 655.697 1.78779C654.621 1.85526 655.159 1.75406 656.987 1.75406C653.976 1.82152 641.716 1.92272 634.725 1.82153C634.833 1.88898 630.424 2.02391 628.811 1.99018L629.456 1.85526C627.95 1.78779 624.078 1.85526 623.756 1.75406C620.314 1.88898 637.092 1.61913 632.359 1.75406C631.177 1.65286 625.799 1.95646 626.874 1.78779C623.648 1.78779 620.422 1.92272 617.411 1.82153C618.271 1.85526 620.1 1.65286 617.411 1.65286C612.787 1.6866 616.121 1.72033 612.357 1.75406L609.99 1.78779C609.883 1.92272 605.903 1.75406 607.624 1.88898C607.086 1.78779 600.956 1.95645 601.387 1.75406L602.032 1.5854C599.989 1.5854 598.806 1.75406 597.193 1.82153C596.978 1.82153 596.44 1.78779 596.547 1.75406C596.225 1.99018 591.816 1.72033 589.449 1.92272C585.256 1.82152 578.802 1.92272 576.867 1.75406C573.641 1.82152 570.737 1.92272 567.081 1.85526C567.833 1.82152 568.801 1.82153 569.016 1.78779C566.757 1.72033 566.112 1.78779 564.069 1.82153C564.499 1.78779 559.445 1.68659 556.863 1.5854C553.637 1.65286 554.713 1.78779 554.39 1.85526C551.486 1.61914 545.356 1.99018 541.7 1.78779C542.775 1.75406 546.324 1.6866 543.743 1.61914C540.839 1.38301 537.828 1.78779 533.096 1.68659L534.279 1.88898C532.128 1.75406 527.289 1.99018 527.827 1.78779C526.214 1.85526 522.234 1.72033 522.772 1.92272C515.029 1.75406 503.952 2.02391 499.22 1.65286C498.145 1.6866 495.349 1.65286 495.886 1.75406C497.715 1.85526 498.467 1.68659 499.112 1.75406C498.145 1.75406 497.929 1.82153 497.822 1.82153C495.456 1.78779 493.52 1.75406 495.778 1.61914C490.402 1.48421 490.294 1.95645 483.41 1.85526C483.734 1.78779 483.196 1.75406 481.26 1.75406L477.496 1.88898C473.087 1.85526 475.023 1.72033 474.915 1.5854C472.549 1.61913 469.645 1.5854 468.569 1.68659L465.667 1.51794C467.71 1.65286 463.73 1.5854 462.655 1.61914L463.73 1.5854C463.3 1.51794 460.612 1.55166 459.213 1.5854C459.536 1.65286 462.333 1.72033 463.838 1.72033C462.655 1.78779 460.719 1.75406 459.213 1.82153C459.751 1.6866 455.342 1.72033 453.514 1.72033C451.363 1.68659 451.04 1.82153 450.502 1.82153C450.395 1.75406 446.954 1.82152 448.674 1.72033C449.427 1.68659 450.395 1.78779 451.578 1.72033C450.18 1.65286 450.288 1.55167 447.384 1.61914C445.125 1.6866 447.922 1.88899 443.727 1.78779C444.802 1.75406 445.018 1.6866 445.879 1.65286L441.899 1.5854L441.684 1.72033C441.146 1.68659 441.469 1.6866 441.254 1.65286C440.071 1.78779 435.231 1.6866 434.37 1.82153C432.435 1.82153 430.177 1.72033 428.348 1.72033H428.671C426.305 1.65286 423.293 1.68659 421.358 1.75406L421.466 1.72033C420.175 1.72033 417.164 1.72033 415.658 1.78779C412.432 1.6866 414.582 1.34928 411.034 1.48421C407.808 1.48421 405.979 1.6866 407.27 1.78779C401.462 1.6866 394.794 1.88898 389.417 1.68659C388.557 1.72033 389.094 1.75406 387.374 1.78779C378.77 1.72033 369.306 1.92272 362.532 1.68659C365.005 1.65286 362.746 1.55167 362.638 1.48421C360.595 1.5854 360.165 1.38301 359.412 1.55166C359.628 1.65286 359.412 1.72033 361.778 1.75406C356.724 1.82152 348.873 1.78779 346.077 1.68659C347.475 1.75406 346.4 1.75406 345.324 1.78779C345.647 1.61914 341.883 1.5854 339.087 1.65286L338.657 1.75406L336.828 1.65286C335.753 1.6866 335.645 1.88898 332.742 1.75406C332.634 1.72033 332.419 1.6866 331.881 1.65286C328.977 1.72033 324.783 1.88899 321.557 1.78779L318.976 1.61914C317.578 1.61914 315.319 1.72033 317.685 1.78779C312.201 1.6866 308.759 1.68659 307.038 1.55166C297.682 1.85526 284.024 1.85526 273.055 1.82153L273.377 1.75406C270.474 1.68659 271.872 1.88898 269.829 1.82153C270.796 1.75406 267.57 1.65286 269.936 1.55166C265.741 1.45047 264.558 1.68659 261.762 1.72033C261.332 1.82152 263.913 1.65286 263.375 1.78779C262.945 1.82153 257.568 1.68659 256.923 1.85526C255.847 1.78779 256.708 1.6866 257.246 1.61914L254.664 1.68659C251.546 1.48421 261.87 1.34928 258.536 1.14689L256.17 1.18062C253.912 1.01196 262.408 1.01196 256.493 0.944496C253.912 1.01196 251.761 1.24808 254.019 1.31554C248.642 1.34928 251.546 1.6866 245.738 1.65286C244.125 1.55167 250.363 1.61914 249.287 1.51794C246.599 1.38301 243.803 1.5854 241.436 1.55166C244.125 1.61913 241.866 1.75406 240.147 1.78779C237.243 1.72033 242.082 1.65286 237.888 1.61914C237.243 1.72033 233.371 1.78779 236.705 1.85526C235.2 2.05765 232.403 1.78779 230.145 1.95646C228.746 1.82153 234.446 1.61913 229.822 1.55166C230.575 1.68659 224.229 1.72033 226.595 1.95646C224.767 1.92272 224.66 1.82152 225.95 1.72033C223.369 1.61913 219.713 1.95645 218.96 1.68659L218.1 1.82153C217.347 1.78779 216.164 1.75406 214.873 1.65286C212.614 1.65286 207.667 1.85526 207.775 1.61914C207.023 1.65286 201.968 1.61914 203.903 1.78779C207.13 1.88899 207.561 1.68659 209.388 1.88898C207.13 1.72033 204.764 1.92272 202.936 1.95646L202.614 1.88898C201.538 1.92272 198.956 1.88898 198.311 1.99018C199.172 1.95645 198.742 1.88898 197.881 1.85526L196.698 1.99018C192.182 2.05765 195.623 1.75406 191.321 1.78779L194.655 1.68659C193.902 1.72033 192.504 1.5854 190.353 1.61914C189.492 1.72033 187.987 1.85526 187.342 1.95646C184.869 1.99018 186.266 1.82153 183.793 1.95646L186.912 1.82153C187.342 1.78779 184.761 1.61914 181.535 1.61914C179.492 1.65286 176.158 1.82152 179.492 1.88898C177.878 1.88898 175.512 1.82152 176.802 1.72033C173.038 1.75406 177.34 1.85526 174.114 1.92272C172.824 1.85526 168.737 1.72033 166.264 1.61914L169.597 1.41674H167.339C170.242 1.24808 165.833 1.28182 167.554 1.14689C166.048 1.11315 164.22 1.18062 162.714 1.21435C167.124 1.4842 157.767 1.55167 159.058 1.82153C152.928 1.88898 155.293 1.24808 148.841 1.61914C149.916 1.6866 146.906 1.85526 150.67 1.78779C146.906 1.75406 148.088 2.02391 143.572 1.92272C146.906 1.82152 140.022 1.68659 144.755 1.55166C144.432 1.61913 147.443 1.61913 148.196 1.5854C146.582 1.4842 148.519 1.34928 144.647 1.34928C142.281 1.38301 139.055 1.38301 139.485 1.48421C139.592 1.61914 143.141 1.48421 141.635 1.61914C136.904 1.65286 136.151 1.45047 134.215 1.68659C137.226 1.68659 137.979 1.82152 137.872 1.88898L134.43 1.95646L135.075 1.85526C129.483 1.78779 133.462 2.02391 128.085 1.99018L125.611 1.82153C126.902 1.65286 133.462 1.88898 132.495 1.65286C128.945 1.65286 127.87 1.75406 124.536 1.68659C125.289 1.65286 126.257 1.65286 127.01 1.65286C125.719 1.65286 124.536 1.31554 119.481 1.48421C116.9 1.55167 118.837 1.5854 118.729 1.65286C113.137 1.6866 111.416 1.78779 107.76 1.78779C108.512 1.61914 101.414 1.75406 105.393 1.5854C107.222 1.68659 115.395 1.68659 117.33 1.51794C115.287 1.31554 121.74 1.55167 122.923 1.34928C118.406 1.34928 118.621 1.11315 117.868 0.978224C116.578 0.978224 115.395 1.01196 114.642 1.04569C114.104 1.18062 115.717 1.18062 115.825 1.31554C110.77 1.28182 105.931 1.34928 103.135 1.48421C101.414 1.41674 101.952 1.28182 103.995 1.28182C97.9727 1.31554 91.6277 1.28181 85.9278 1.24808C89.5843 1.45047 79.5827 1.28182 82.0562 1.48421C85.0675 1.55167 87.756 1.6866 86.0353 1.78779C84.0995 1.78779 86.1429 1.6866 85.2825 1.65286C82.809 1.75406 81.5185 1.45047 79.1525 1.65286C84.6372 1.5854 80.2279 1.38301 81.1959 1.21435C77.2167 1.31554 81.4109 1.07942 77.4318 1.07942C73.4526 1.18062 68.7207 1.24808 64.3114 1.28182C58.8266 1.11315 50.4382 1.28182 45.4912 1.28182C42.9101 1.18062 44.6308 1.01196 41.8346 0.978224C38.6084 0.978224 44.3082 1.18062 39.4687 1.07942L39.8989 1.04569C38.3933 1.07942 31.0802 0.91076 29.5747 1.18062L31.0802 0.978224C30.2199 0.944496 29.3596 1.01196 28.6067 1.01196C28.6067 0.944496 27.5313 0.877032 29.0369 0.843296C26.0257 0.70837 22.7994 0.877032 19.573 0.877032L21.6164 1.01196C16.024 1.11315 12.3676 0.978224 6.99037 1.01196L7.09791 0.877032L3.87159 0.944496C4.62439 0.843296 1.72071 0.742102 0 0.843296L8.2809 0.53971C10.5393 0.607174 5.80738 0.674639 7.20545 0.809568C8.38844 0.91076 13.443 0.877032 14.1959 0.775835C12.2601 0.775835 12.1525 0.775834 10.7544 0.843296C10.1092 0.674638 13.0128 0.674637 14.4109 0.573442C13.443 0.573442 12.045 0.53971 11.8298 0.573442C13.7656 0.505978 15.809 0.472247 19.0353 0.472247C16.7769 0.539711 20.2183 0.573444 19.3579 0.607175C19.573 0.472248 22.6919 0.404783 26.7784 0.472247C29.6822 0.640907 34.3066 0.37105 39.0385 0.404782C37.1027 0.53971 34.7367 0.674637 31.9406 0.742101C34.8443 0.809568 35.1669 0.742102 38.1782 0.809568C39.5762 0.70837 40.6517 0.539711 44.4158 0.472247L44.6308 0.573442C48.0722 0.505978 48.0722 0.37105 52.4815 0.404782C60.0096 0.472245 67.7528 0.472247 73.5602 0.472247L73.7753 0.573442C77.0016 0.337318 84.4221 0.505978 88.8314 0.404782C96.1445 0.505978 104.748 0.303587 108.512 0.505978C121.525 0.438515 132.817 0.37105 146.26 0.404782L144.002 0.573442C146.368 0.472245 145.615 0.674639 147.873 0.640907C145.185 0.505979 151.099 0.472246 152.82 0.37105C158.843 0.505978 166.478 0.371052 171.748 0.269856L171.963 0.37105C177.34 0.168659 183.685 0.37105 190.353 0.404782C191.105 0.438513 192.289 0.53971 194.333 0.53971C197.989 0.37105 199.817 0.371052 205.194 0.269856C209.066 0.269856 215.411 0.337318 219.282 0.404782C233.909 0.168658 248.75 0.337318 263.913 0.202391L264.989 0.337319C279.723 0.0674638 297.79 0.337318 310.372 0.202391L309.189 0.404782C313.168 0.472245 318.115 0.37105 317.148 0.202391C321.127 0.269855 327.042 0.101196 329.516 0.303588C333.494 0.33732 334.463 0.202391 337.797 0.168659C345.862 0.269855 348.873 0.236123 356.509 0.202391H354.573C353.713 0.236123 353.713 0.337318 355.541 0.37105C358.337 0.303586 365.972 0.438515 363.176 0.168659C371.35 0.337319 382.104 0.0674649 390.063 0.269856C389.417 0.202393 391.353 0.202392 392.214 0.134928C399.311 0.134928 406.839 0.303587 412.539 0.168659C413.723 0.202391 410.711 0.303588 413.615 0.303588C415.336 0.269856 413.615 0.202391 415.766 0.168659C427.273 0.0337319 439.103 0.33732 449.642 0.303588C468.355 0.16866 487.82 0.269856 505.672 0.269856L505.457 0.337319C511.48 0.134928 519.546 0.539712 524.277 0.269856C525.676 0.33732 529.655 0.303586 528.58 0.404782C533.311 0.269854 541.915 0.53971 548.798 0.37105C548.152 0.37105 547.83 0.37105 547.077 0.404782C554.067 0.53971 560.197 0.371052 567.511 0.472247C566.757 0.505979 565.36 0.505978 565.144 0.573442C567.94 0.674637 571.92 0.371052 573.425 0.607175C575.038 0.607175 574.608 0.472247 573.533 0.472247C589.665 0.573443 606.764 0.438514 623.541 0.37105C635.586 0.53971 624.294 0.809568 633.758 0.607175C634.51 0.640907 634.296 0.505978 634.403 0.573442C638.059 0.505978 640.102 0.843296 642.684 0.742101C641.609 0.573442 644.405 0.640905 644.405 0.573442C651.717 0.674637 653.224 0.809568 659.031 0.708369L658.601 0.775835C665.376 0.539712 673.226 0.674637 679.034 0.404782C716.459 0.337318 752.379 0.269855 788.837 0.202391C824.971 0.236123 860.245 0.101194 896.918 0.236122C905.522 0.438513 906.167 0.438515 915.523 0.337319C915.093 0.371051 914.556 0.37105 915.201 0.404782C915.631 0.236122 921.868 0.37105 922.729 0.202391C936.279 0.236123 948.755 0.16866 962.735 0.134928C960.584 0.16866 959.401 0.303588 962.09 0.303588L964.779 0.202391L965.209 0.236122C967.037 0.20239 968.973 0.134926 967.144 0.0674628C1002.2 -0.134929 1036.62 0.20239 1070.92 0.0674628C1079.1 0.134926 1090.6 0.0337319 1099.53 0C1125.77 0.168659 1149.43 0.303588 1176 0.101197C1176.11 0.236125 1172.67 0.70837 1161.69 0.809568Z" fill="#E1E4E8"/>
</svg>
